<?xml version="1.0" encoding="UTF-8" standalone="no"?>
<!DOCTYPE svg PUBLIC "-//W3C//DTD SVG 1.1//EN" "http://www.w3.org/Graphics/SVG/1.1/DTD/svg11.dtd">
<svg width="800.00" height="600.00" viewBox="0.00 0.00 800.00 600.00" xmlns="http://www.w3.org/2000/svg" xmlns:xlink="http://www.w3.org/1999/xlink">
<g stroke-linecap="round" id="Layer_2">
<path d="M832.00,290.00" fill="none" stroke="rgb(199, 188, 161)" stroke-width="13.30" stroke-opacity="1.00" stroke-linejoin="round"/>
<path d="M-15.00,549.00 C-12.29,549.04 -9.90,548.90 -9.00,548.50 C-4.63,546.53 7.29,538.80 8.50,537.50 C11.16,534.17 16.96,530.19 19.05,528.48 C28.77,519.87 35.25,514.25 35.50,514.00 C35.95,514.19 37.00,519.00 37.00,519.50 C37.50,520.50 38.18,522.06 38.10,523.50 C38.04,524.90 37.86,527.18 38.00,527.50 C38.19,527.93 38.86,528.05 39.00,528.50 C39.21,529.13 38.82,529.86 39.00,530.50 C39.88,533.46 46.00,540.00 48.50,543.00 C49.60,544.07 55.62,549.51 56.50,551.00 C57.54,551.10 60.20,550.14 60.50,550.00 C60.93,549.80 61.97,548.68 62.50,549.00 C63.53,549.66 64.60,551.61 65.50,552.00 C65.71,552.09 68.92,555.87 69.00,556.00 C69.13,556.22 74.01,559.06 76.52,560.62 C78.97,561.88 91.25,563.61 99.39,562.83 C101.41,562.62 104.64,559.97 107.50,556.50 C107.69,556.27 108.02,555.77 108.50,555.00 C109.92,554.96 112.21,555.10 112.50,555.00 C115.26,553.99 121.53,549.21 122.50,548.50 C122.89,548.20 131.27,539.65 132.00,539.00 C132.07,538.94 138.63,533.79 139.00,533.50 C140.47,532.35 142.27,531.76 143.50,532.00 C143.81,532.08 147.61,538.87 148.00,539.50 C149.00,541.00 153.55,546.90 155.00,548.50 C156.26,549.84 157.87,550.04 159.50,550.00 C160.07,548.78 161.84,548.19 162.50,548.00 C162.86,547.90 163.18,547.08 163.50,547.00 C164.13,546.86 167.03,547.18 167.50,547.50 C167.80,547.72 177.88,557.85 179.50,559.00 C179.61,559.08 181.35,558.90 182.50,559.00 C183.52,559.06 185.38,557.03 185.50,557.00 C185.83,556.93 187.14,556.30 187.50,556.00 C189.59,554.32 193.76,552.40 194.95,551.00 C196.06,549.70 200.35,547.87 202.81,545.41 C209.95,538.20 217.44,528.59 220.35,525.24 C223.22,521.98 228.94,515.12 229.50,514.50 C230.32,513.61 237.77,508.36 239.50,507.50 C240.59,506.96 243.79,505.81 244.50,505.00 C247.25,510.54 251.78,517.87 253.50,521.50 C256.54,527.90 258.47,533.09 260.50,535.00 C260.96,534.83 260.77,533.13 261.00,532.50 C261.31,531.68 263.06,530.69 263.50,531.00 C266.45,533.25 273.50,541.00 276.50,544.00 C281.47,549.98 284.19,551.51 286.50,554.00 C287.22,554.78 288.73,555.03 290.00,556.50 C290.50,557.05 292.67,557.01 297.51,556.99 C301.77,556.98 312.28,556.99 312.50,557.00 C314.70,557.13 326.16,552.63 326.50,552.50 C331.29,550.74 338.45,550.97 338.50,551.00 C339.49,551.59 340.42,553.28 341.50,554.00 C343.00,555.00 346.85,559.30 349.50,561.50 C350.23,562.10 352.33,564.26 353.50,565.00 C356.28,566.72 358.33,567.18 361.50,567.00 C362.40,566.94 365.42,568.92 365.50,569.00 C365.76,569.12 370.31,568.79 371.00,568.50 C371.51,568.28 374.70,565.41 375.50,565.00 C375.97,564.76 382.23,561.83 385.50,560.00 C385.83,559.82 386.77,558.79 387.00,558.50 C387.34,558.05 389.84,557.87 390.50,557.00 C393.11,558.84 396.06,563.62 397.00,564.50 C397.17,564.66 397.60,565.06 398.50,565.50 C398.82,565.64 399.65,564.82 400.00,564.50 C400.96,563.57 404.02,558.07 404.50,557.50 C404.53,557.46 409.96,552.58 410.00,552.50 C410.50,551.50 411.25,550.02 411.50,550.00 C411.83,549.97 412.92,549.92 413.00,549.50 C413.07,549.17 413.00,548.46 413.50,548.00 C416.00,545.50 416.98,543.52 418.00,542.50 C421.64,537.21 424.38,529.62 426.50,527.50 C426.69,527.27 427.02,526.77 427.50,526.00 C428.93,525.87 430.10,526.15 431.50,527.00 C431.77,527.17 432.97,528.97 433.50,529.50 C433.92,529.93 435.64,530.97 436.50,532.00 C439.56,535.83 442.46,537.87 443.50,538.00 C443.74,538.03 444.41,538.03 445.50,538.00 C447.47,534.50 450.29,526.45 450.50,526.00 C454.10,518.31 457.20,511.04 457.00,510.50 C458.93,509.33 460.94,504.12 461.00,503.50 C461.05,502.91 461.78,502.24 463.00,501.50 C462.89,500.26 464.17,496.88 465.00,495.50 C465.23,495.11 468.39,492.41 469.50,492.00 C469.67,491.94 477.05,491.95 477.50,492.00 C478.69,492.13 486.93,494.07 489.39,494.98 C492.81,496.24 497.93,495.95 499.66,496.02 C502.11,496.07 503.04,495.90 504.00,495.00 C506.36,492.71 509.20,488.96 511.00,487.50 C512.68,486.16 518.36,482.67 521.50,481.00 C523.33,480.00 527.90,479.29 528.50,479.00 C529.48,478.50 530.89,475.78 532.50,474.50 C532.57,474.44 536.07,471.20 536.50,471.00 C536.81,470.87 539.42,469.97 540.50,470.00 C541.17,470.02 543.85,470.14 544.50,470.50 C544.91,470.73 545.53,471.52 547.50,472.50 C550.43,473.98 551.21,473.83 551.50,474.00 C552.88,475.38 555.71,476.05 559.50,476.00 C560.45,475.98 572.51,475.92 573.00,476.00 C576.00,477.00 581.56,478.43 582.29,478.81 C584.15,479.79 588.46,482.34 592.22,483.70 C595.90,485.03 601.46,489.19 602.00,489.50 C602.53,489.81 606.00,491.15 606.50,491.50 C607.08,491.91 613.22,497.78 613.50,498.00 C613.79,498.23 614.84,498.69 616.00,499.50 C615.76,500.46 620.28,513.01 620.50,514.00 C620.58,514.37 621.87,522.79 623.64,528.12 C624.36,530.27 624.75,532.75 625.00,534.50 C625.00,534.52 627.75,541.10 628.50,545.00 C629.13,548.28 630.93,551.73 631.00,552.50 C631.00,552.55 631.75,553.22 632.50,554.00 C633.08,553.70 636.75,551.36 637.50,551.00 C641.25,549.75 647.87,547.13 648.50,547.00 C649.64,546.77 650.84,547.16 652.00,547.00 C653.05,546.86 655.63,545.86 657.73,545.94 C659.72,546.03 663.23,545.93 663.50,546.00 C664.40,546.24 673.10,553.14 674.00,554.00 C675.03,554.98 684.48,565.65 686.50,567.00 C689.11,568.93 689.83,569.06 691.50,569.00 C692.89,567.09 698.87,556.60 699.00,556.50 C699.54,556.12 702.24,553.15 703.50,553.00 C704.29,552.91 706.71,551.08 707.00,550.50 C707.17,550.17 710.40,547.55 710.50,547.50 C711.77,546.92 712.83,547.05 714.50,548.00 C715.78,548.76 720.03,552.38 721.00,553.50 C721.10,553.61 724.93,555.40 725.00,555.50 C725.21,555.81 725.99,556.85 728.50,558.00 C728.94,558.00 728.98,555.50 729.00,554.50 C729.02,554.00 730.91,554.04 731.50,554.00 C732.74,553.95 733.40,553.95 733.50,554.00 C734.13,554.31 734.41,555.11 735.00,555.50 C735.74,556.01 738.16,556.79 739.00,557.50 C739.80,558.16 740.21,559.26 740.50,559.50 C741.07,559.98 744.51,561.61 745.50,562.50 C745.75,562.72 746.13,563.94 746.50,564.00 C746.83,564.04 749.39,565.10 750.50,565.00 C751.27,562.70 752.54,561.97 753.50,561.00 C754.00,560.25 758.24,556.76 758.50,556.50 C758.77,556.24 763.14,551.20 763.50,551.00 C765.08,550.14 768.26,545.78 768.50,545.50 C769.46,544.42 771.07,543.78 772.50,544.00 C774.15,544.28 774.80,545.18 775.00,545.50 C775.68,546.64 777.46,547.42 778.50,549.50 C779.01,550.16 781.55,551.60 782.50,552.00 C783.35,552.34 783.73,552.75 784.50,554.00 C784.88,553.94 787.93,555.52 788.50,556.00 C788.96,556.39 789.70,557.68 791.50,558.50 C794.20,559.74 795.61,561.00 796.50,561.00 C796.93,561.20 798.90,562.56 799.50,563.00 C799.88,563.27 800.70,564.07 802.50,564.00 C802.91,563.98 812.28,563.91 812.50,564.00 C812.94,564.18 813.09,564.76 813.50,565.00 C813.78,565.18 814.89,565.10 816.48,566.00 C818.28,567.00 823.02,567.74 823.50,568.00 C823.91,568.23 824.69,569.15 825.00,569.00" fill="none" stroke="rgb(199, 188, 161)" stroke-width="13.30" stroke-opacity="1.00" stroke-linejoin="round"/>
<path d="M2.67,37.36 C2.38,27.90 2.67,19.17 3.77,12.56 C4.38,9.12 5.83,0.84 6.67,-4.00 C7.85,-10.83 10.46,-25.95 11.90,-34.25 C16.00,-55.07 21.00,-70.35 26.68,-85.39 C25.35,-74.44 22.27,-44.67 20.51,-25.84 C17.93,7.53 13.22,74.56 11.08,108.20 C10.45,122.40 9.02,148.58 8.21,160.56 C6.83,175.74 5.84,206.35 5.38,226.43 C5.26,260.09 5.23,328.52 5.31,363.31 C5.32,369.32 5.34,385.01 5.29,387.35 C5.17,392.50 5.62,395.42 6.67,397.60 C8.11,394.91 9.04,388.82 9.27,387.30 C10.36,380.01 10.74,365.97 10.81,361.03 C10.69,347.82 11.11,314.15 11.65,293.68 C13.02,263.82 16.48,199.07 18.57,164.18 C19.80,148.64 22.99,113.41 24.95,93.71 C27.87,69.90 35.98,16.29 37.53,7.38 C38.89,-0.20 42.41,-8.36 46.70,-17.34 C48.94,-16.43 49.76,-15.60 49.74,-13.81 C49.64,-8.13 45.09,28.12 43.88,40.57 C40.70,75.25 34.41,143.83 31.31,177.74 C29.56,196.42 28.19,219.23 27.68,233.44 C27.36,250.00 26.84,281.70 26.65,296.84 C26.63,311.91 26.86,340.57 27.37,354.81 C28.13,370.60 29.39,395.29 30.21,401.51 C30.78,405.79 32.64,409.39 36.02,413.61 C39.11,410.07 41.09,406.88 42.20,402.98 C43.86,397.07 47.58,378.59 48.25,373.94 C49.24,366.91 51.67,330.55 52.47,317.54 C53.85,300.23 57.78,264.12 59.52,249.38 C61.80,231.95 66.19,198.15 68.31,181.77 C70.10,166.39 73.53,133.96 74.33,121.76 C75.42,108.83 78.95,79.03 80.99,63.24 C86.10,28.70 92.30,-12.92 93.40,-20.01 C92.04,-9.75 88.38,19.82 86.07,39.11 C82.79,71.20 76.51,136.31 73.51,169.33 C72.29,186.95 70.37,220.52 70.09,233.89 C69.80,263.28 69.66,324.61 70.37,355.30 C70.89,370.67 72.75,401.11 74.48,418.86 C75.50,427.25 77.42,442.05 78.32,448.46 C78.77,451.55 80.37,457.69 81.64,460.91 C82.67,463.38 85.52,465.16 86.72,465.64 C88.52,461.08 93.31,448.95 95.08,439.42 C96.27,432.98 100.00,393.93 101.46,376.89 C103.89,342.94 109.86,253.83 110.06,251.55 C113.82,217.80 122.13,155.02 126.90,120.31 C129.41,104.60 134.42,74.72 138.63,53.37 C142.82,34.18 150.57,6.81 154.09,-5.33 C156.26,-12.57 161.26,-26.28 162.77,-28.02 C163.60,-28.95 165.58,-30.18 166.78,-30.69 C168.64,-20.89 169.62,-12.58 169.82,-3.66 C169.84,7.82 168.01,38.69 167.12,50.89 C165.45,83.58 162.67,148.23 161.56,180.19 C161.14,197.36 160.45,231.60 160.19,248.67 C160.16,284.25 160.63,350.72 161.13,381.61 C161.60,398.73 163.46,419.79 166.14,435.79 C167.35,444.10 170.13,450.55 173.45,457.64 C175.08,457.29 177.60,456.13 178.79,454.97 C181.07,452.66 184.14,438.05 185.49,427.70 C188.05,398.53 194.06,336.69 197.50,304.01 C200.46,273.55 206.24,213.74 209.57,183.94 C211.62,167.50 215.84,136.04 218.00,121.01 C220.40,106.01 225.74,74.40 228.67,57.79 C231.71,41.84 238.17,8.85 241.58,-8.19 C244.71,-23.04 252.90,-60.41 255.81,-69.91 C256.46,-72.02 262.82,-90.49 263.98,-93.25 C265.19,-96.07 269.09,-99.85 270.85,-101.40 C271.85,-92.50 272.32,-85.05 272.03,-75.27 C271.25,-57.82 266.07,-0.53 262.82,44.70 C260.58,78.68 256.18,145.65 254.02,178.64 C252.87,195.60 250.75,226.08 249.77,239.61 C249.13,251.72 248.38,282.33 248.13,297.56 C248.06,314.89 248.02,350.12 248.05,368.01 C248.10,380.89 248.19,410.18 249.50,413.61 C250.29,415.63 252.17,418.66 253.50,420.28 C255.06,419.96 257.58,418.81 258.84,417.61 C261.55,414.97 265.20,400.00 266.32,391.74 C268.07,377.37 274.27,304.82 277.49,271.11 C281.12,235.88 287.91,169.46 291.06,138.27 C292.45,123.76 294.73,100.39 297.38,81.41 C302.78,49.37 314.50,-16.70 320.83,-50.73 C324.64,-70.36 329.96,-89.48 330.89,-90.73 C331.20,-91.15 332.09,-92.04 333.55,-93.40 C330.94,-67.76 325.13,-9.77 321.93,22.59 C318.15,61.17 311.56,128.98 308.75,158.23 C307.01,177.79 304.32,209.90 303.94,218.23 C302.96,247.33 300.88,313.15 299.79,349.89 C299.42,364.23 298.62,397.53 299.73,407.09 C300.08,410.24 302.85,413.76 304.20,414.94 C309.17,406.49 312.84,399.17 315.21,392.67 C317.68,385.64 320.60,373.23 322.68,362.27 C325.20,347.81 338.28,268.83 343.61,238.45 C348.61,206.96 358.43,143.59 363.26,111.71 C368.33,81.01 378.18,18.74 382.59,-13.85 C383.42,-19.77 385.61,-34.52 386.84,-40.21 C388.39,-47.22 393.07,-68.12 393.59,-69.38 C394.08,-70.53 395.41,-72.41 396.26,-73.38 C397.41,-64.40 397.64,-59.12 397.67,-48.45 C397.56,-31.80 397.00,1.41 396.55,17.97 C394.94,48.52 390.67,107.92 388.59,135.79 C386.79,170.06 383.66,239.95 382.32,275.56 C381.09,304.41 378.32,357.68 380.06,392.21 C380.26,396.25 382.46,404.28 384.26,405.60 C385.33,406.35 387.94,406.88 389.59,406.94 C392.08,402.73 393.45,399.85 394.11,396.79 C396.33,386.74 400.80,353.36 402.67,337.82 C405.84,305.67 411.76,243.43 414.52,213.34 C416.36,197.98 420.43,166.53 422.65,150.45 C427.47,119.14 438.25,58.36 444.51,27.21 C451.63,-4.68 462.86,-53.64 466.98,-70.71 C464.85,-56.29 460.05,-24.47 457.50,-9.42 C454.67,4.37 449.45,32.34 447.07,46.52 C444.48,63.58 439.60,97.83 437.61,114.41 C434.47,146.57 430.02,208.82 428.44,239.83 C427.97,255.48 427.98,289.42 428.20,307.11 C428.58,321.44 429.01,337.88 430.59,361.16 C430.89,365.02 432.19,372.24 433.35,375.99 C434.64,380.09 437.74,387.56 439.70,390.86 C440.79,392.62 443.21,395.37 444.78,396.50 C446.25,397.53 449.67,398.68 451.67,398.94 C453.73,399.15 456.39,398.64 458.21,397.68 C461.23,396.00 466.90,389.98 468.50,387.00 C473.67,377.09 482.60,347.82 486.07,336.12 C489.31,324.22 498.05,286.08 501.05,272.23 C507.30,241.23 520.11,177.67 526.68,145.10 C533.51,112.43 547.00,49.35 553.68,18.93 C561.73,-15.02 575.75,-72.52 581.72,-96.06 C576.38,-68.05 566.89,-8.40 561.38,26.53 C558.98,42.27 554.01,75.75 551.44,93.48 C548.07,121.46 541.57,180.58 538.44,211.72 C537.04,227.59 534.40,259.75 533.16,276.04 C532.22,291.45 531.11,323.28 531.02,338.99 C531.23,357.56 532.37,378.99 534.02,398.93 C534.81,406.93 535.24,410.25 536.36,413.61 C536.99,415.47 540.81,424.10 542.63,427.22 C543.68,428.95 545.83,430.99 547.19,431.39 C548.30,431.68 551.36,430.52 552.37,429.62 C554.96,427.14 559.66,414.62 562.88,404.12 C565.45,395.25 570.55,362.18 572.34,349.18 C576.29,315.26 584.01,246.89 587.78,212.45 C589.51,197.17 593.26,165.08 595.29,148.28 C599.36,120.00 608.10,54.72 611.91,31.35 C617.82,-0.40 629.68,-58.58 631.03,-63.87 C633.78,-74.65 635.99,-79.25 637.76,-81.39 C635.56,-65.00 628.72,9.97 625.13,41.99 C623.36,56.55 620.10,85.47 618.61,99.84 C617.29,115.36 615.08,146.40 614.19,161.92 C612.96,193.41 609.41,274.27 609.09,287.95 C609.04,306.92 611.30,327.73 612.06,333.96 C612.39,336.82 614.24,341.31 615.08,342.89 C616.30,342.38 618.31,341.17 619.08,340.23 C621.19,337.58 625.13,322.83 627.11,312.86 C628.85,303.39 637.94,220.19 641.86,183.86 C643.73,167.24 647.47,135.19 649.32,119.76 C652.06,98.92 656.74,69.28 658.94,56.57 C664.41,26.89 673.08,-19.15 676.23,-33.38 C680.54,-51.24 688.37,-69.97 689.79,-73.38 C690.82,-63.75 690.78,-56.34 690.38,-48.58 C689.08,-30.25 680.28,50.37 676.42,84.77 C674.68,101.07 671.39,133.81 669.83,150.25 C668.10,172.43 664.61,239.72 662.87,270.92 C662.10,286.56 660.86,320.06 660.38,337.92 C660.33,345.95 660.33,360.42 660.38,366.86 C660.52,375.79 662.65,389.97 664.33,394.72 C664.87,396.20 666.47,399.62 667.11,400.27 C668.21,401.30 671.19,402.04 672.45,401.60 C673.85,401.05 677.72,395.38 678.85,392.20 C681.45,384.72 683.35,375.07 684.72,366.51 C688.66,339.26 697.12,267.63 700.64,236.18 C704.18,203.78 711.35,140.98 714.96,110.60 C717.00,97.13 721.83,67.12 724.62,50.56 C727.22,35.96 735.06,-4.96 736.49,-9.34 C737.66,-12.90 740.00,-17.67 740.49,-18.68 C740.84,-14.21 738.57,-0.28 737.46,6.41 C731.47,41.09 721.02,104.10 716.55,132.43 C712.68,164.18 705.61,225.22 702.41,254.50 C700.66,271.83 697.60,305.59 696.28,322.02 C695.30,337.72 693.86,376.70 693.72,395.01 C693.99,411.15 694.92,448.12 695.13,449.63 C695.84,454.61 698.94,462.41 700.47,464.31 C701.78,465.90 706.12,468.92 707.14,469.65 C711.04,467.85 715.33,464.41 717.78,461.00 C721.15,456.15 726.73,439.69 728.86,431.04 C729.97,426.51 732.48,411.93 733.43,404.49 C736.61,370.50 743.17,294.08 743.67,280.29 C743.94,269.18 751.49,185.45 754.80,149.79 C756.59,131.16 759.86,97.37 761.34,82.21 C764.92,48.47 770.16,11.43 771.18,2.67 C769.67,15.40 765.41,46.31 763.80,60.71 C761.26,88.74 756.05,151.24 753.38,185.73 C751.35,219.36 747.91,284.67 746.50,316.36 C746.11,330.37 745.49,367.78 745.75,379.48 C746.29,392.20 747.77,419.87 749.12,437.21 C749.81,444.58 751.53,461.10 753.04,466.36 C754.13,470.06 756.45,475.02 758.59,478.13 C760.34,480.60 764.25,482.43 765.84,482.99 C768.47,480.30 770.16,477.04 771.63,471.92 C773.87,463.90 776.74,448.93 777.55,441.08 C778.44,432.39 778.94,398.98 778.94,386.40 C779.46,360.93 783.57,287.31 785.70,253.49 C786.95,236.95 789.79,201.91 791.39,183.41 C794.64,151.18 799.88,98.47 800.53,82.72 C796.06,111.23 787.80,173.48 783.45,206.61 C778.87,238.85 770.01,303.23 765.72,335.37 C761.72,365.04 756.80,400.99 755.89,407.29 C755.38,410.91 754.95,416.76 756.20,419.88 C756.28,420.09 761.50,428.59 763.19,432.61 C764.33,435.36 767.51,443.72 768.24,446.60 C769.04,451.45 771.18,461.60 771.18,461.64 C771.23,462.40 770.98,465.59 771.18,466.98 C771.35,468.15 774.06,476.44 773.85,478.69 C773.68,480.44 775.48,482.99 776.52,484.32 C775.84,485.56 773.97,488.98 773.85,489.66 C773.69,490.53 774.04,491.46 773.85,492.33 C773.63,493.30 771.19,499.29 769.99,501.15 C768.86,502.86 764.34,505.65 762.80,507.17 C760.22,509.70 755.58,512.22 751.27,513.59 C749.62,514.09 745.65,515.00 744.49,515.01 C742.56,514.99 740.07,514.18 738.14,512.98 C735.17,511.07 729.73,506.60 728.78,505.68 C725.28,502.24 714.16,485.41 711.80,481.37 C707.64,474.22 701.18,460.09 698.45,452.18 C692.40,433.96 682.04,408.37 677.09,394.29 C672.14,379.24 661.75,347.62 656.89,333.64 C652.10,320.81 648.54,312.74 643.62,302.99 C641.43,298.53 635.68,286.27 630.54,279.70 C628.24,276.84 623.58,275.10 621.75,274.85 C618.39,278.97 616.46,282.04 615.61,285.43 C614.43,290.54 611.48,342.44 611.85,346.38 C612.21,349.64 613.65,370.53 613.74,374.92 C613.64,381.25 613.72,392.71 615.05,400.69 C616.39,408.65 616.87,420.45 616.41,426.95 C615.52,439.91 620.36,457.66 621.75,461.64 C622.87,459.56 623.28,458.40 623.28,456.92 C623.26,451.63 620.05,407.46 618.74,399.60 C616.65,385.41 612.09,353.65 609.61,336.07 C606.92,313.56 605.33,290.94 603.17,279.43 C601.44,269.35 594.20,179.50 591.46,145.88 C589.64,132.38 586.41,104.93 585.05,88.08 C583.00,63.69 581.10,50.14 576.60,28.32 C575.30,22.36 574.12,17.57 573.20,14.51 C572.05,10.84 569.51,7.14 566.85,6.03 C565.42,5.47 563.33,5.24 561.60,5.45 C558.35,5.92 553.34,9.10 550.07,12.13 C544.45,17.42 536.18,28.97 531.21,37.00 C525.96,45.70 507.88,80.65 504.49,88.22 C501.02,95.99 489.14,130.02 484.48,143.79 C480.49,156.50 470.43,194.54 466.71,210.69 C460.15,243.38 451.09,288.96 448.59,301.84 C448.17,303.82 448.46,304.64 449.63,305.54 C452.55,291.03 458.67,259.41 460.62,246.64 C464.44,215.96 472.43,154.75 476.96,125.01 C481.21,94.54 489.81,33.01 495.16,0.41 C503.96,-47.66 506.51,-64.62 507.00,-68.05 C503.15,-57.31 492.34,-16.11 491.94,-14.62 C488.67,-1.75 481.32,33.23 478.03,49.58 C474.95,65.63 468.98,97.24 466.08,112.80 C459.90,142.89 446.32,202.88 439.78,234.33 C436.72,249.14 429.15,283.96 426.20,295.19 C422.14,311.22 417.11,336.90 413.08,352.51 C406.12,377.75 402.50,394.19 402.44,396.04 C402.41,397.79 403.22,399.50 404.43,400.57 C406.03,401.86 407.94,402.75 409.61,402.93 C413.16,403.26 425.70,398.19 435.74,393.60 C451.97,385.98 491.02,367.66 495.00,366.32 C497.85,365.38 500.59,365.45 501.67,365.58 C501.29,372.58 500.18,389.90 499.05,394.91 C497.37,402.15 494.14,408.89 488.82,417.74 C484.55,424.62 474.50,437.34 469.13,443.72 C464.72,448.88 458.03,456.65 451.29,462.25 C444.67,467.70 428.70,481.02 426.04,483.57 C425.08,484.49 420.93,489.12 418.09,491.68 C407.91,500.77 390.43,511.06 388.26,512.34 C387.32,511.44 385.77,509.74 385.59,509.67 C385.18,509.50 383.87,509.52 383.06,508.22 C380.35,503.85 377.77,494.69 375.60,484.71 C372.44,469.32 364.86,433.62 361.48,424.09 C359.52,418.58 350.68,399.56 348.14,395.09 C346.00,391.41 341.75,387.12 337.89,385.20 C335.95,384.30 333.19,384.23 331.15,385.05 C329.89,385.60 326.78,388.12 326.11,389.26 C324.53,392.05 322.67,399.61 321.84,403.01 C319.43,414.02 318.77,418.32 317.85,430.43 C317.46,435.44 314.47,453.01 314.76,460.16 C314.85,462.65 315.02,465.15 314.88,465.64 C313.82,468.02 312.62,470.84 312.21,472.31 C310.32,474.59 308.75,475.37 306.87,474.98 C306.87,474.98 306.87,477.65 306.87,477.65 C307.66,477.30 309.98,479.43 310.87,480.32 C312.21,481.65 311.96,482.62 312.21,482.99 C312.45,483.36 313.34,484.25 314.88,485.66 C313.95,485.86 313.15,485.46 311.64,483.83 C310.06,482.14 305.96,478.20 303.87,475.69 C297.55,467.97 288.75,455.40 287.02,452.92 C285.97,451.42 280.09,445.79 278.69,443.14 C276.94,439.76 273.33,432.90 270.47,430.12 C269.76,429.44 267.72,427.91 266.84,426.95 C267.02,427.78 264.47,433.18 264.18,436.29 C264.09,437.27 264.45,443.28 263.71,447.12 C262.44,453.45 258.14,468.93 255.87,475.11 C254.60,478.49 251.68,483.07 249.50,484.32 C248.55,484.83 245.32,485.74 244.10,485.86 C242.63,485.96 240.39,485.32 239.28,484.48 C236.95,482.60 225.32,463.36 224.05,459.48 C221.89,452.84 215.36,438.37 214.81,437.62 C214.43,437.12 213.32,435.98 213.48,434.96 C213.48,434.96 210.81,434.96 210.81,434.96 C210.57,435.91 209.95,438.37 209.47,438.96 C208.68,439.94 206.37,442.21 206.03,444.05 C204.82,450.37 198.51,461.91 197.24,465.60 C196.45,467.90 194.80,469.65 193.46,470.98 C192.89,471.69 191.29,475.86 190.79,476.32 C190.06,476.99 188.94,477.08 188.12,477.65 C187.09,478.37 184.13,481.62 184.12,481.65 C183.99,482.02 184.09,484.44 184.12,485.66 C184.12,485.66 181.45,485.66 181.45,485.66 C181.18,484.65 180.57,482.24 180.12,481.65 C179.36,480.65 176.86,478.35 175.91,476.81 C175.53,476.20 175.16,475.59 174.78,474.98 C172.66,475.82 171.53,476.85 170.74,478.95 C169.96,481.00 167.57,483.35 166.78,484.32 C166.20,485.02 164.61,488.95 164.11,489.66 C163.24,490.85 159.75,493.65 158.77,493.66 C157.52,493.62 155.71,491.94 154.47,489.98 C153.23,487.94 147.74,479.68 146.39,478.00 C144.18,475.38 142.00,471.21 140.32,466.88 C137.75,460.07 131.74,443.33 128.79,435.06 C126.85,429.82 124.43,426.22 124.08,425.62 C123.59,424.75 122.39,422.41 121.41,421.61 C119.98,422.91 118.33,427.68 117.54,430.19 C115.32,437.55 109.95,455.84 108.83,460.76 C106.94,469.09 105.87,485.61 104.12,489.95 C103.74,490.90 101.29,495.39 101.40,496.33 C100.36,493.13 98.46,487.23 95.91,474.92 C93.72,464.64 89.99,451.96 86.52,444.37 C85.29,441.67 80.77,431.65 80.33,430.76 C78.82,427.78 75.95,427.01 74.72,426.95 C73.81,428.13 71.81,430.80 70.71,432.29 C68.96,434.68 67.82,440.08 67.19,445.28 C66.63,450.38 65.31,457.43 63.67,460.86 C63.31,461.60 60.54,465.95 60.04,466.98 C59.41,468.25 58.97,470.50 58.71,470.98 C58.17,471.96 57.00,472.46 56.04,472.31 C55.23,469.26 52.63,465.49 52.03,464.31 C51.45,463.16 42.33,438.00 40.72,435.73 C39.71,434.38 37.21,432.60 35.74,432.29 C33.87,431.93 25.24,433.96 24.31,434.89 C24.13,435.08 14.71,451.99 13.34,453.63 C11.72,448.93 10.43,444.30 10.40,440.65 C10.39,439.75 10.61,436.07 10.67,434.96" fill="none" stroke="rgb(199, 188, 161)" stroke-width="80.05" stroke-opacity="1.00" stroke-linejoin="round"/>
<path d="M473.71,487.98 C473.71,487.98 473.05,486.50 473.05,486.50 C473.65,485.89 476.87,486.80 479.61,488.31 C481.81,489.54 486.02,492.36 487.16,492.73 C489.02,493.31 491.09,492.31 491.75,490.93 C491.86,490.67 492.68,479.34 494.37,471.74 C495.14,468.31 497.25,461.36 498.31,459.76 C499.38,458.22 502.65,454.94 503.56,454.35 C503.56,454.35 494.54,486.99 494.54,486.99 C494.89,486.59 495.73,482.80 496.51,481.25 C497.51,479.29 498.70,478.28 499.29,477.97 C500.14,479.74 499.82,483.16 499.13,486.83 C498.40,491.23 499.02,491.78 499.13,491.91 C500.42,492.09 504.58,484.44 506.68,478.53 C509.00,471.99 515.65,456.98 516.85,455.01 C518.14,452.95 520.17,450.30 521.11,449.76 C521.82,449.36 523.36,449.46 523.73,449.60 C524.23,451.02 520.05,459.31 517.89,463.36 C516.81,465.57 505.13,484.84 505.20,485.35 C508.25,484.64 511.52,482.71 513.91,481.06 C518.84,477.62 526.52,472.76 531.78,469.53 C538.93,465.20 544.90,460.27 544.89,459.76 C543.65,459.97 508.57,488.10 507.58,489.02 C507.51,489.07 496.31,496.55 496.34,496.51 C496.34,496.51 525.87,454.84 525.87,454.84 C524.88,454.48 522.69,455.50 519.88,457.90 C510.57,465.86 493.29,483.05 490.11,485.84 C492.26,483.05 499.56,471.81 504.59,465.18 C509.54,458.74 517.71,450.18 519.63,449.10 C516.19,452.82 506.07,462.96 503.43,465.65 C495.36,473.72 481.95,485.62 479.45,488.14 C479.85,488.75 491.27,479.66 494.11,477.50 C499.81,472.97 510.92,464.15 516.33,459.86 C532.19,447.41 538.24,446.59 538.99,446.81 C538.96,448.55 538.38,449.93 536.69,452.06 C531.92,458.22 513.81,478.99 508.15,485.02 C509.19,484.30 537.00,452.30 543.09,449.27 C543.25,449.19 543.47,449.14 543.75,449.10 C543.90,450.29 539.83,458.63 535.71,466.00 C534.66,467.88 534.74,469.16 534.89,469.77 C535.39,470.40 539.43,469.71 541.94,468.29 C542.95,467.71 549.15,463.89 550.80,463.87 C552.11,463.89 560.04,469.13 561.30,469.44 C561.30,469.44 562.28,468.62 562.28,468.62 C562.28,468.62 560.64,460.26 560.64,460.26 C560.64,460.26 564.25,479.61 564.25,479.61 C562.28,476.81 551.69,465.11 549.81,464.19 C549.15,463.88 548.23,463.87 547.52,464.03 C547.52,464.03 546.70,465.18 546.70,465.18 C546.80,466.40 548.68,468.30 550.96,469.11 C554.45,470.30 560.26,471.63 563.92,471.74 C566.08,471.78 573.30,470.34 575.07,469.28 C577.10,468.03 579.34,464.74 579.50,463.37 C579.75,461.02 578.21,455.36 577.54,454.68 C576.58,453.80 573.04,453.63 570.65,454.35 C566.46,455.66 559.46,461.12 552.60,467.97 C550.41,470.14 549.81,470.78 549.98,470.75 C550.90,470.22 558.90,462.67 562.12,459.72 C563.61,458.24 574.24,445.52 576.72,444.18 C576.94,444.07 577.26,443.96 577.70,443.85 C578.63,445.28 577.82,450.00 576.65,455.02 C573.85,466.77 569.15,478.92 568.51,481.42 C567.71,482.12 573.66,464.83 576.06,459.76 C576.69,458.43 577.48,457.47 578.19,456.98 C579.19,458.77 578.47,475.46 578.68,476.99 C578.74,477.36 578.90,478.08 579.18,479.12 C579.98,479.34 580.36,479.21 580.49,478.46 C580.64,477.58 581.20,470.12 581.47,469.77 C581.77,469.87 588.76,481.68 590.73,485.56 C592.49,488.97 596.40,493.80 598.53,496.34 C599.04,496.97 603.25,502.41 605.09,502.90 C605.88,502.49 604.72,497.81 603.57,494.25 C602.52,491.07 599.14,478.26 598.04,477.15 C597.58,478.69 598.31,482.73 599.02,485.19 C601.56,493.80 604.17,500.63 608.01,508.75 C612.39,517.62 617.29,530.21 618.71,533.74 C621.05,540.00 621.95,546.12 622.64,546.53 C623.34,545.95 623.70,542.40 623.58,539.41 C623.33,533.90 622.01,525.77 620.33,517.85 C618.81,511.16 615.48,495.65 615.92,493.55 C620.13,503.23 627.74,538.94 628.38,539.48 C628.76,537.97 628.06,524.88 627.60,519.13 C627.55,518.48 627.23,496.46 627.07,496.34 C626.74,497.75 625.44,542.90 625.64,549.73 C625.79,554.43 626.18,556.13 626.58,557.20 C628.21,557.36 629.28,557.00 630.35,555.72 C633.78,551.60 637.48,543.73 641.14,536.81 C644.32,530.87 650.40,519.66 652.50,518.16 C652.65,519.22 645.93,531.94 642.07,538.84 C639.18,544.02 635.64,552.40 635.60,553.75 C637.18,553.73 640.78,550.36 643.03,548.09 C647.91,543.14 659.27,533.31 662.61,531.01 C676.02,522.17 680.83,519.46 681.04,519.31 C677.87,521.59 660.66,538.42 656.10,542.93 C653.52,545.59 652.25,548.19 651.84,549.49 C651.84,549.49 652.17,550.47 652.17,550.47 C653.02,551.14 656.98,550.67 659.06,549.16 C660.87,547.82 664.89,543.20 665.80,541.96 C669.28,537.12 668.84,531.73 668.41,530.46 C667.29,531.08 666.87,531.88 667.09,533.41 C667.49,536.04 668.81,541.64 670.25,545.18 C670.48,545.75 674.05,553.24 676.44,555.23 C677.94,556.45 680.98,557.62 681.36,557.69 C680.80,557.97 676.04,551.76 673.82,546.86 C672.55,543.87 671.17,540.34 671.52,539.15 C672.16,538.88 672.92,539.12 674.31,540.14 C677.80,542.75 679.84,544.60 682.67,547.83 C689.86,556.03 693.65,562.75 693.83,562.94 C694.21,562.51 690.99,551.97 690.71,550.96 C689.65,546.94 689.52,539.64 690.22,536.04 C690.82,533.14 693.06,529.88 694.16,529.31 C695.66,531.06 696.29,532.22 696.34,533.62 C696.80,548.64 691.97,557.13 692.03,557.20 C693.33,553.97 704.12,535.83 709.74,533.58 C709.88,533.52 710.10,533.47 710.40,533.41 C712.96,533.84 702.53,544.30 695.68,551.48 C684.59,563.04 682.76,567.05 682.84,567.20 C683.56,567.03 695.79,553.80 696.78,552.60 C701.00,547.51 700.68,545.49 700.39,544.89 C699.33,544.18 695.31,543.23 690.88,542.93 C687.99,542.76 682.53,542.46 680.71,541.94 C678.52,541.28 675.76,539.07 675.29,536.86 C674.83,534.43 674.79,528.73 675.46,524.23 C676.08,520.25 679.54,512.08 683.99,505.36 C687.20,500.56 688.31,499.39 689.24,498.80 C689.24,498.80 690.39,498.80 690.39,498.80 C691.50,500.64 691.35,504.52 690.71,508.32 C690.09,511.79 685.04,529.44 684.15,531.77 C681.14,539.57 678.02,545.01 676.44,548.34 C676.30,548.27 686.96,523.85 689.78,518.86 C694.26,511.08 696.39,510.37 697.27,510.28 C698.27,511.65 697.59,515.80 696.38,519.22 C695.36,521.98 693.33,526.06 691.87,528.17 C690.38,530.29 685.54,536.13 683.99,536.53 C683.17,536.69 681.65,535.72 681.04,534.72 C679.96,532.87 679.42,526.95 679.68,524.53 C680.57,516.90 685.21,501.64 687.60,497.65 C687.80,499.48 686.15,502.86 683.68,507.38 C678.72,516.31 664.98,533.36 662.71,535.46 C661.95,536.15 660.95,536.50 659.55,536.69 C658.67,535.25 659.03,530.80 659.71,528.33 C661.17,523.24 666.35,512.97 670.56,505.91 C673.34,501.32 676.58,497.05 678.41,495.52 C679.56,494.58 680.36,494.25 680.87,494.37 C681.05,495.55 679.61,498.36 677.05,502.60 C673.56,508.25 668.36,514.85 660.92,523.28 C656.38,528.34 645.20,539.04 645.11,538.99 C645.11,538.99 681.86,489.62 681.86,489.62 C681.86,489.62 635.44,546.21 635.44,546.21 C636.53,543.77 644.27,531.55 647.89,525.92 C649.45,523.58 669.71,494.94 674.64,489.29 C674.14,488.91 666.74,496.63 660.50,503.88 C654.18,511.53 634.90,536.39 632.65,538.99 C632.63,539.06 658.51,496.25 659.42,494.69 C663.99,486.80 663.97,483.93 663.48,483.22 C662.01,482.69 657.24,485.52 655.42,487.24 C651.64,490.90 643.33,500.85 640.04,505.81 C636.91,510.59 631.22,518.93 627.24,522.91 C627.83,520.93 645.40,486.03 645.81,485.02 C647.53,480.69 647.36,479.43 646.92,477.81 C645.82,477.40 644.41,477.62 642.82,478.63 C639.31,480.88 630.95,490.63 624.45,499.79 C619.54,506.55 616.69,509.34 615.43,510.45 C614.63,509.54 614.58,508.26 615.43,506.02 C618.81,497.09 629.77,476.46 630.35,475.84 C630.38,475.77 622.27,487.76 618.37,492.41 C613.42,498.27 609.97,500.25 609.36,500.12 C608.40,498.84 610.28,490.99 612.90,481.90 C613.46,479.98 614.21,478.23 614.28,478.14 C613.45,480.98 606.20,499.65 604.94,502.55 C601.19,511.11 599.18,513.27 597.87,514.39 C597.05,513.85 597.06,508.85 597.38,506.68 C598.12,501.84 601.94,490.14 604.60,483.33 C605.81,480.25 608.31,474.79 610.50,471.41 C609.96,473.01 599.78,490.38 598.98,491.63 C597.60,493.78 592.03,500.52 591.64,500.94 C590.59,502.05 587.60,504.15 586.56,504.05 C585.91,503.61 586.94,498.80 588.53,494.74 C591.39,487.67 599.03,471.97 598.86,471.90 C597.81,471.75 594.74,473.47 592.09,475.76 C577.00,489.68 574.58,490.55 573.93,490.60 C573.43,489.36 573.96,486.13 574.87,482.93 C576.78,476.55 578.62,467.79 578.85,463.21 C579.00,459.48 578.00,456.44 576.55,455.34 C575.92,454.88 570.50,453.30 569.17,453.53 C567.65,453.84 565.37,457.37 564.68,459.69 C564.12,461.67 561.50,479.59 559.66,483.38 C558.76,485.20 557.55,486.93 557.36,486.83 C556.48,486.54 555.94,485.46 555.39,482.73 C554.55,478.07 552.28,466.71 550.80,464.52 C550.14,463.60 548.92,462.60 548.17,462.39 C546.98,462.12 543.25,464.28 540.88,466.63 C539.16,468.35 532.52,473.98 532.43,474.03 C531.83,474.42 531.05,474.33 530.30,474.03 C529.03,472.79 529.19,458.90 528.82,451.73 C528.60,448.28 527.77,446.48 527.02,445.82 C526.15,445.57 523.65,447.51 521.64,450.17 C521.21,450.76 509.80,468.16 508.48,470.37 C507.24,472.45 506.88,473.03 506.18,474.03" fill="none" stroke="rgb(199, 188, 161)" stroke-width="9.84" stroke-opacity="1.00" stroke-linejoin="round"/>
<path d="M660.96,481.59 C658.39,476.28 656.57,472.15 655.00,464.03 C653.98,458.63 653.49,457.53 652.30,456.34 C650.50,456.54 649.50,456.94 648.74,458.00 C647.34,459.98 644.62,466.53 643.47,469.90 C641.99,474.32 633.03,522.94 630.52,530.58 C629.51,533.62 628.76,535.06 628.18,535.86 C627.57,533.72 629.56,522.09 631.82,513.41 C633.98,505.30 638.50,495.11 643.16,486.24 C646.58,479.84 653.67,469.65 657.46,466.59 C659.00,465.36 660.35,464.80 661.72,464.63 C663.49,465.75 664.54,468.52 666.97,475.68 C667.86,478.33 668.80,480.49 669.63,481.59 C670.81,483.09 678.40,488.61 679.69,490.09 C680.58,491.13 684.83,498.14 685.28,499.08 C686.53,501.74 688.91,511.07 689.23,512.49 C690.46,518.09 691.02,518.97 692.24,520.03 C692.24,520.03 694.13,518.52 694.13,518.52" fill="none" stroke="rgb(199, 188, 161)" stroke-width="22.61" stroke-opacity="1.00" stroke-linejoin="round"/>
<path d="M711.22,540.83 C710.52,540.39 708.77,539.46 708.12,539.06 C707.44,538.64 705.80,537.53 705.47,537.51 C705.69,537.97 716.81,550.09 719.82,552.38 C722.05,554.02 726.67,555.82 728.92,555.88 C729.81,555.86 731.06,554.99 731.58,554.11 C733.17,550.98 729.09,540.97 729.14,539.72 C730.50,539.83 734.22,542.25 736.45,543.26 C738.53,544.18 744.68,544.40 745.52,543.93 C746.27,543.48 751.23,537.46 752.60,535.96 C753.09,537.82 747.95,553.75 746.85,559.19 C746.63,560.52 746.26,562.58 745.74,564.73 C750.77,558.69 757.85,552.96 760.12,548.79 C761.63,545.78 765.60,539.36 766.98,537.73 C769.35,535.02 774.15,531.64 777.24,530.91 C780.16,530.25 783.12,530.17 785.13,531.53 C787.00,532.84 790.02,537.63 790.22,539.06 C790.41,540.43 790.71,547.11 791.77,548.57 C793.87,551.39 796.55,553.32 797.96,554.55 C801.47,557.62 805.05,562.80 805.27,563.18 C806.25,564.95 806.63,566.69 806.59,566.94 C805.98,566.97 800.28,561.31 799.51,560.52 C797.48,558.44 792.57,554.71 791.33,553.50 C786.06,548.34 777.76,536.33 777.16,534.85 C778.34,534.77 781.85,536.52 784.69,537.29 C787.34,537.99 794.32,538.80 796.64,538.39 C799.91,537.77 805.73,534.38 808.59,531.31 C811.28,528.29 815.89,514.89 816.55,513.17 C816.40,514.14 809.47,523.35 806.56,527.08 C800.26,535.69 794.11,544.90 793.98,548.13 C793.98,548.35 794.05,548.72 794.20,549.24 C794.79,549.65 795.58,549.71 796.86,549.24 C801.67,547.46 804.33,546.82 808.59,546.14" fill="none" stroke="rgb(199, 188, 161)" stroke-width="13.28" stroke-opacity="1.00" stroke-linejoin="round"/>
<path d="M447.81,496.17 C448.16,496.10 450.32,496.38 451.99,496.77 C452.79,496.95 455.00,497.49 455.57,497.07 C455.79,496.90 456.48,496.31 457.66,495.28 C457.66,495.28 457.66,493.49 457.66,493.49 C456.36,493.49 455.12,494.25 454.08,495.88 C453.77,496.36 450.59,503.07 448.82,507.31 C446.37,513.30 446.14,514.22 446.02,516.18 C446.02,516.18 448.71,515.28 448.71,515.28 C448.79,517.28 447.48,523.69 446.62,526.03 C445.61,528.65 443.48,530.30 442.73,529.91 C440.91,528.88 436.36,523.25 435.57,520.65 C433.74,514.47 432.66,501.21 432.14,494.35 C431.29,483.62 427.53,453.41 424.82,441.84 C423.03,434.29 418.91,424.91 417.66,423.33 C416.37,421.80 413.35,420.00 411.99,420.34 C410.40,420.80 408.08,423.08 407.39,424.66 C405.39,429.62 404.10,441.28 403.51,451.28 C402.95,463.21 403.35,474.21 404.44,480.18 C405.00,483.03 408.17,487.95 411.72,492.13 C415.53,496.53 418.66,500.42 418.85,501.55 C419.18,503.85 418.63,505.95 417.06,508.12 C414.18,512.04 408.11,523.74 405.42,532.00 C403.59,537.69 402.91,541.59 403.03,544.84 C403.17,547.37 405.51,550.91 406.61,551.11 C407.39,551.20 411.41,547.61 412.58,545.43 C414.43,541.85 415.29,536.33 414.08,536.18 C411.52,537.04 409.66,537.90 408.27,539.11 C405.30,541.69 398.19,551.60 391.68,559.17 C391.09,559.86 390.20,560.60 389.30,561.26 C388.86,560.90 383.38,541.75 383.28,541.45 C382.85,540.18 377.84,531.07 377.06,529.91 C372.59,523.36 367.16,520.98 365.71,520.65 C364.72,521.46 364.30,522.27 364.27,523.81 C363.99,538.50 367.32,549.70 367.80,550.51 C367.27,550.92 367.07,552.52 367.50,554.39 C367.54,554.57 369.05,558.97 369.29,560.36 C369.93,563.92 369.54,567.01 369.29,567.23 C367.83,566.94 361.34,563.13 356.16,560.66 C355.80,560.49 347.68,557.41 346.90,557.08 C344.58,556.03 342.01,552.58 340.93,549.31 C340.64,548.39 337.84,531.55 338.04,525.98 C338.16,523.27 339.57,514.33 340.34,513.19 C340.94,512.32 342.75,510.38 342.72,509.91 C342.11,510.59 337.30,513.85 336.45,514.38 C333.48,516.26 310.76,524.56 308.33,525.44 C306.75,525.99 304.89,526.07 302.72,525.73 C300.99,525.45 299.40,524.38 298.84,524.24 C297.97,524.04 296.64,524.78 296.15,525.73 C295.28,527.55 294.11,533.01 293.09,536.07 C291.95,539.47 289.79,543.83 288.13,545.86 C287.54,546.57 285.77,548.01 285.11,548.72 C285.40,547.67 286.06,545.24 286.26,544.55 C286.67,543.03 286.40,541.08 285.40,539.76 C284.30,538.37 282.03,536.96 280.40,536.50 C277.61,535.77 273.85,534.08 271.37,532.60 C268.84,531.02 265.28,526.63 264.11,524.26 C263.05,522.05 261.00,516.35 260.63,514.09 C259.53,507.14 260.71,504.68 260.92,504.53 C259.63,506.65 257.67,512.01 257.34,512.89 C256.32,515.66 255.58,521.94 255.55,522.74 C255.55,523.40 256.16,524.94 256.74,525.13 C257.83,525.45 266.38,524.92 270.48,525.43 C272.90,525.74 278.17,526.88 281.90,527.30 C287.26,527.86 293.12,527.71 296.45,526.92 C299.97,526.03 304.26,523.39 306.44,521.12 C307.51,519.98 307.99,519.60 308.09,519.76 C307.82,523.67 304.78,543.58 305.41,546.93 C305.71,548.39 306.41,550.48 306.90,551.11 C308.09,552.54 312.26,553.18 314.66,552.60 C315.03,552.50 320.84,550.04 326.01,548.12 C330.78,546.34 333.83,545.72 337.95,545.73 C343.14,545.73 345.54,545.78 348.10,545.13 C351.87,544.15 352.99,542.91 353.17,542.75 C352.92,542.23 352.34,542.09 350.19,542.15 C346.56,542.23 339.55,542.00 336.75,540.95 C330.68,538.62 322.22,532.50 319.74,529.91 C317.90,527.98 317.40,527.06 317.65,526.33 C317.75,529.55 315.64,535.11 315.56,535.28 C313.81,538.84 312.79,541.43 312.87,541.55 C315.18,539.37 318.80,536.83 323.32,534.39 C331.65,529.94 353.75,522.51 355.56,522.45 C356.85,522.43 358.24,523.54 358.85,524.83 C359.37,526.09 359.49,527.72 359.14,529.01 C358.38,531.63 356.26,534.43 353.17,537.67 C350.86,540.01 347.14,541.89 347.50,541.25 C347.95,540.66 351.47,537.81 351.96,537.44 C353.95,535.95 358.53,533.76 361.97,532.95 C364.74,532.32 368.24,531.29 368.40,531.40 C367.00,531.38 357.07,532.02 346.72,532.07 C337.97,532.02 326.21,530.44 321.53,529.31 C309.44,526.37 284.47,517.33 280.63,517.67 C281.74,516.70 285.61,510.41 286.63,505.88 C287.10,503.66 287.24,501.55 286.90,500.95 C286.42,500.24 284.89,499.27 283.61,498.86 C281.57,498.25 276.29,500.04 274.36,501.55 C271.11,504.15 249.55,526.62 248.39,527.22 C246.33,528.23 243.32,529.16 242.12,529.01 C240.99,528.84 239.02,527.29 238.23,526.03 C237.31,524.46 235.48,517.72 234.65,514.68 C233.80,511.50 233.10,500.73 231.97,494.08 C230.10,483.81 229.45,477.42 229.58,474.98 C229.61,474.43 229.71,473.33 229.88,471.69" fill="none" stroke="rgb(199, 188, 161)" stroke-width="17.91" stroke-opacity="1.00" stroke-linejoin="round"/>
<path d="M143.00,533.77 C143.01,532.84 142.89,524.01 143.44,521.39 C143.69,520.32 144.36,518.75 144.77,518.41 C145.39,517.96 146.92,518.12 147.72,518.80 C149.41,520.32 151.64,524.67 153.63,529.63 C155.00,533.14 159.15,551.40 159.93,554.06 C161.21,553.19 161.86,552.06 162.10,549.92 C163.08,541.14 163.13,531.29 164.07,524.80 C164.87,519.55 165.68,517.13 166.43,515.65 C167.87,516.56 168.31,531.25 168.95,541.30 C169.38,547.16 169.69,549.25 169.98,550.12 C172.22,548.99 173.23,548.11 173.94,546.39 C178.46,536.44 183.88,524.26 184.16,524.32 C183.81,528.44 180.99,542.31 178.99,550.66 C178.36,553.63 177.53,559.30 178.05,559.97 C179.06,560.26 181.81,559.15 183.57,557.01 C185.86,554.18 192.26,543.68 192.83,543.03 C192.83,543.03 189.08,553.07 189.08,553.07 C191.23,553.08 216.35,522.69 226.24,510.53 C229.38,506.87 231.49,504.81 233.60,504.03 C227.05,513.85 219.40,522.59 204.12,542.60 C202.72,544.42 202.23,545.18 201.89,545.98 C203.36,545.82 211.20,539.26 218.88,533.72 C230.27,525.48 237.85,518.73 239.70,518.01 C239.80,518.73 238.07,521.35 235.96,523.53 C233.44,526.08 228.08,529.84 224.73,531.60 C221.82,533.10 217.74,533.88 216.07,533.38 C217.94,534.26 224.43,537.87 225.72,538.50 C229.01,540.09 234.13,541.46 235.96,541.06 C237.61,540.61 238.06,535.96 237.34,533.38 C236.62,531.02 228.37,518.54 225.08,512.45 C222.25,507.23 220.84,506.96 220.40,506.98 C220.15,507.17 218.80,510.78 217.13,513.69 C212.28,522.10 208.77,526.18 205.04,529.63 C201.71,532.66 199.18,533.94 196.37,535.15 C195.47,533.73 195.30,532.54 195.98,530.62 C197.46,526.45 199.46,521.69 201.30,518.90 C206.66,511.07 210.11,506.80 211.34,505.60 C211.31,507.16 198.41,526.11 198.05,526.58 C197.65,527.10 184.73,541.50 182.39,543.03 C181.90,541.48 184.10,536.73 186.13,533.38 C187.26,531.54 192.04,525.62 194.21,522.99 C199.81,516.43 210.18,507.98 210.55,508.16 C207.98,511.60 188.93,534.24 182.01,542.21 C179.90,544.50 173.83,549.74 173.33,550.12 C171.88,551.21 170.67,551.68 169.59,551.69 C167.97,550.60 166.77,545.68 166.66,543.25 C166.58,541.10 167.00,531.77 167.02,530.03 C167.09,524.35 166.72,522.94 166.24,522.35 C164.76,522.83 161.13,526.15 158.75,529.14 C157.89,530.24 152.81,537.38 150.32,540.50 C148.37,542.92 144.07,546.63 143.00,546.97 C142.40,546.01 142.72,541.40 143.68,537.47 C145.83,528.84 150.26,511.24 149.89,509.74 C149.81,509.43 149.55,509.04 149.10,508.56 C147.37,508.09 144.59,509.67 142.01,511.91 C134.78,518.48 125.77,528.10 122.54,531.37 C120.20,533.73 114.08,540.53 113.11,541.50 C110.57,543.98 109.46,544.26 108.72,544.21 C107.22,541.75 114.41,523.45 114.63,522.54 C114.63,522.54 96.51,562.72 96.51,562.72 C102.48,552.96 107.15,546.97 110.74,542.55 C115.00,537.62 122.49,529.01 126.84,525.10 C129.20,523.02 132.47,521.80 133.34,522.15 C133.68,523.40 132.86,526.96 131.18,530.03 C129.40,533.08 124.28,542.08 122.90,544.01 C123.53,543.69 134.53,531.47 135.90,529.83 C139.06,526.15 141.68,522.94 142.40,522.94 C142.50,523.53 140.76,527.81 139.06,530.03 C137.78,531.66 132.84,536.11 129.80,538.33 C125.27,541.60 108.61,548.57 106.82,549.47 C105.37,550.22 102.74,551.93 99.14,554.47 C94.02,558.09 91.29,559.84 89.82,559.77 C88.51,559.63 86.84,556.39 85.88,552.83 C85.88,552.82 81.95,530.64 81.59,527.57 C80.86,521.10 81.59,519.07 81.74,519.00 C82.92,522.31 82.58,536.89 81.46,545.46 C80.23,555.65 78.86,560.83 77.60,561.94 C76.44,561.88 74.32,558.65 73.08,556.07 C71.79,553.33 65.05,537.34 62.19,530.47 C59.10,522.64 55.35,509.91 54.95,508.76 C54.21,510.07 54.32,514.39 54.65,518.66 C55.92,534.10 55.96,535.24 55.94,537.12 C55.94,537.12 52.00,494.38 52.00,494.38 C52.00,494.38 45.50,540.27 45.50,540.27 C45.69,534.43 46.20,522.06 46.04,515.90 C45.80,507.19 44.71,496.90 43.33,495.36 C42.24,495.37 39.48,499.24 38.60,502.65 C37.53,507.01 37.26,518.26 37.96,523.08 C38.38,525.76 40.52,530.77 42.94,532.79 C44.28,533.86 56.00,541.01 57.32,541.06 C58.91,539.71 59.39,537.15 59.48,532.74 C59.54,529.20 58.99,523.83 58.30,521.16 C57.14,516.82 55.39,514.62 54.36,513.88 C53.32,514.17 52.34,515.07 51.80,516.63 C50.89,519.33 51.01,526.18 51.26,529.24 C51.90,536.74 54.10,544.17 55.10,546.38 C55.59,547.44 56.25,548.03 57.51,548.74 C59.57,548.36 62.81,544.86 64.15,542.25 C66.29,537.95 68.41,528.31 68.42,521.45 C68.41,515.87 67.08,507.96 66.18,505.60 C65.59,508.87 65.39,511.98 65.88,515.94 C66.79,522.50 68.48,534.67 70.25,542.26 C71.14,545.95 72.69,551.03 74.85,553.47 C75.80,554.50 77.94,555.41 78.79,555.24 C79.61,555.00 81.20,553.36 81.74,552.09 C83.39,548.02 84.41,533.64 84.25,527.72 C84.15,524.36 83.07,506.05 83.32,505.01 C84.39,506.00 88.69,519.36 92.92,531.03 C94.33,534.77 97.46,542.95 98.77,545.74 C100.06,548.44 102.82,551.94 104.39,551.89 C105.88,551.74 108.44,547.14 109.84,543.42 C111.64,538.67 113.53,534.12 115.03,531.80 C115.38,531.26 118.05,527.41 118.57,526.29 C115.78,527.36 113.01,529.29 108.07,533.08 C104.28,536.04 95.28,547.41 94.15,547.75 C94.03,547.79 93.83,547.79 93.56,547.75 C92.35,546.19 89.58,533.68 87.18,525.45 C86.20,522.19 84.14,518.74 83.12,518.60 C82.21,519.33 81.19,523.39 81.15,527.86 C81.13,533.33 82.60,546.25 83.32,547.95 C83.88,546.74 82.48,541.47 81.51,539.15 C79.25,533.80 74.51,526.49 71.89,522.37 C69.74,519.09 67.65,517.16 66.77,516.83 C66.77,516.83 65.79,517.22 65.79,517.22 C64.99,519.43 65.23,523.83 65.84,528.93 C66.98,537.65 66.96,540.12 66.77,540.86 C65.63,540.64 64.71,539.85 63.42,537.74 C61.28,534.23 56.63,523.68 54.28,517.28 C51.08,508.54 46.55,499.35 45.10,498.32 C44.06,497.64 42.14,497.45 41.17,498.12 C38.71,499.89 33.75,510.65 32.07,517.19 C29.80,526.25 28.13,535.00 27.97,535.35 C27.97,535.35 35.85,504.82 35.85,504.82 C34.51,505.41 31.49,509.94 29.89,512.30 C26.77,517.46 19.97,527.76 18.91,528.45 C18.11,527.24 18.52,522.72 19.17,519.77 C20.48,513.68 22.86,501.50 23.17,495.18 C23.33,491.75 22.71,486.99 21.47,485.32 C20.16,483.67 16.92,482.59 15.36,483.35 C13.91,484.12 12.79,488.07 12.21,492.01 C10.77,503.33 12.27,516.44 12.80,517.22 C13.70,516.62 24.08,494.79 26.59,490.04 C28.99,485.68 30.72,484.20 31.71,483.74 C31.77,487.01 30.38,491.01 29.51,493.51 C27.84,498.11 20.20,512.99 16.64,519.91 C6.94,538.93 1.75,542.59 1.18,542.63 C0.51,540.24 5.47,529.21 8.08,523.53 C8.93,521.57 17.23,502.99 18.75,499.11 C20.76,493.74 20.99,492.66 21.08,491.23 C21.08,491.23 20.09,490.24 20.09,490.24 C18.15,490.17 14.87,493.23 13.00,495.76 C10.06,499.80 3.84,512.59 1.02,521.58 C0.33,523.81 -4.58,538.94 -4.53,538.89 C-0.58,520.01 6.17,494.85 9.02,482.32 C10.00,477.89 10.75,473.87 10.24,473.11 C8.32,473.98 3.68,483.31 2.56,486.10 C2.14,487.16 1.15,489.85 0.79,490.83" fill="none" stroke="rgb(199, 188, 161)" stroke-width="11.82" stroke-opacity="1.00" stroke-linejoin="round"/>
</g>
<g stroke-linecap="round" id="Layer_5" opacity="0.27">
<path d="M21.00,450.00 C22.26,449.47 26.66,447.64 27.29,447.39 C30.81,445.96 33.90,443.05 35.55,441.36 C37.90,439.38 46.83,436.08 48.00,436.50 C48.87,436.88 48.25,440.06 48.00,441.00 C47.05,445.22 45.42,449.32 42.80,454.62 C38.89,462.13 30.91,476.32 27.19,482.44 C23.82,487.55 16.35,499.34 12.05,506.60 C5.05,518.68 2.91,522.87 3.00,525.00 C13.08,513.99 41.53,483.13 44.91,480.27 C49.05,476.88 56.68,469.25 62.02,462.98 C67.78,456.56 74.09,453.46 75.75,453.00 C75.89,454.11 75.62,454.86 74.42,456.21 C69.45,461.88 61.85,474.12 57.94,480.61 C53.52,487.60 41.13,506.35 41.01,506.53 C39.92,508.13 39.06,510.11 39.00,511.50 C38.97,512.99 40.49,514.41 42.00,514.50 C45.81,514.58 61.43,510.26 70.19,507.17 C77.41,504.53 91.76,499.17 98.88,496.45 C106.93,493.21 115.06,488.65 120.75,486.75 C122.03,486.33 125.21,485.40 126.76,484.96 C128.57,484.45 129.45,484.56 130.50,485.25 C130.53,488.10 129.36,490.87 127.33,493.77 C122.53,500.63 118.42,509.50 117.39,511.44 C116.93,512.30 117.07,513.66 117.75,516.75 C120.00,517.41 121.62,517.60 123.60,517.30 C129.18,516.42 137.19,512.73 148.06,507.25 C168.96,496.80 182.30,489.16 185.70,487.30 C189.33,485.32 192.48,484.62 197.47,484.43 C199.08,484.39 199.94,484.62 201.00,485.25 C201.02,489.02 199.96,491.98 198.07,495.47 C190.92,508.43 188.92,512.38 189.00,513.75 C189.23,516.03 191.83,518.95 194.25,519.75 C196.20,520.33 200.21,519.62 205.90,518.04 C215.04,515.42 222.64,511.66 233.29,505.48 C244.46,499.43 271.19,484.46 283.08,478.26 C288.05,475.79 293.30,473.69 295.50,474.00 C296.55,474.18 298.80,475.49 299.25,476.25 C299.68,477.03 300.05,480.05 300.00,481.50 C299.83,484.33 288.22,506.47 286.97,509.04 C285.23,512.68 281.68,528.00 282.00,529.50 C282.51,531.63 284.65,533.71 286.50,534.00 C289.22,534.32 298.43,530.02 307.31,524.84 C318.22,518.28 379.75,478.51 384.00,476.25 C388.55,473.86 394.92,471.79 397.50,471.00 C399.19,472.09 400.96,474.35 401.25,476.25 C401.58,478.74 392.47,492.88 386.77,500.97 C377.56,513.68 366.07,529.65 364.45,532.79 C363.54,534.57 363.91,536.18 365.25,538.50 C367.78,537.83 371.26,535.80 376.15,532.19 C383.95,526.18 394.17,517.04 399.56,512.81 C402.73,510.33 437.04,484.94 450.73,474.89 C460.43,467.92 469.93,462.00 475.83,460.03 C477.64,459.43 483.47,457.79 484.50,457.50 C485.78,458.58 486.26,459.52 485.97,460.94 C484.96,465.65 476.49,477.13 470.64,484.24 C466.51,489.07 459.44,496.46 453.52,503.73 C446.80,512.20 445.75,515.03 445.50,516.00 C446.51,516.75 447.56,516.74 449.57,515.65 C457.03,511.61 484.67,490.99 497.60,481.27 C511.38,470.60 532.26,453.43 545.60,442.70 C558.45,432.75 587.38,410.82 592.50,408.00 C594.82,406.73 601.50,403.50 604.50,402.12 C606.20,401.34 607.31,401.16 609.00,401.25 C608.02,404.17 600.23,416.95 595.85,424.07 C593.88,427.15 589.20,434.40 587.23,437.10 C586.14,438.60 575.15,452.14 572.68,457.09 C570.05,462.45 567.88,471.03 567.24,475.02 C566.95,476.98 567.17,479.90 567.75,481.50 C568.09,482.37 570.43,483.56 571.50,483.75 C575.35,484.26 591.86,478.78 598.73,475.50 C603.27,473.32 637.10,455.81 651.74,448.35 C658.63,444.95 675.03,437.02 679.27,435.68 C682.91,434.56 687.12,433.41 690.24,432.56 C694.74,431.46 701.71,430.43 702.75,431.25 C703.15,431.57 703.90,432.57 705.00,434.25 C702.76,438.33 700.59,441.62 697.99,444.49 C687.12,456.14 664.54,480.30 652.83,492.83 C646.56,499.66 642.96,503.88 638.90,510.48 C636.54,514.48 634.40,520.76 635.25,523.50 C635.68,524.73 637.72,526.75 639.00,527.25 C641.53,528.14 648.85,527.91 653.96,527.15 C661.05,526.06 671.08,522.65 681.71,518.60 C698.25,512.21 733.48,498.73 741.51,496.49 C747.07,494.80 756.46,491.80 759.90,491.19 C761.87,490.85 763.47,491.59 765.75,493.50 C765.77,496.05 763.95,500.18 760.89,505.09 C759.90,506.64 752.96,517.12 752.25,518.25 C749.40,522.81 746.65,528.45 745.88,531.95 C745.44,534.07 745.58,536.76 746.20,538.05 C746.86,539.31 748.66,540.66 750.50,541.34 C753.37,542.33 758.92,542.66 762.75,542.25 C767.73,541.69 779.59,539.26 789.65,536.61 C797.00,534.52 811.28,530.53 819.04,528.56 C823.95,527.39 842.01,524.09 847.98,523.66 C853.15,523.31 868.59,524.63 872.40,525.52 C876.93,526.61 889.78,531.47 892.50,532.50" fill="none" stroke="rgb(199, 188, 161)" stroke-width="100.00" stroke-opacity="1.00" stroke-linejoin="round"/>
</g>
<g stroke-linecap="round" id="Layer_7">
<path d="M165.00,364.50 C164.47,365.46 162.76,368.52 162.29,369.26 C161.31,370.75 159.32,371.95 157.60,372.08 C152.38,372.38 147.62,373.60 145.20,373.53 C140.47,373.38 123.96,376.12 117.95,378.36 C95.63,386.81 57.94,407.44 37.87,417.00 C30.88,420.64 18.05,427.88 13.51,430.97 C9.22,433.90 -3.91,444.49 -9.75,449.25 C-12.85,451.73 -18.42,456.11 -20.32,459.03 C-21.38,460.72 -22.03,463.10 -21.82,464.44 C-21.57,465.68 -20.40,467.30 -19.20,468.09 C-17.15,469.37 -10.39,471.46 -7.50,471.75 C-2.38,472.21 11.42,470.19 19.62,468.18 C31.29,465.29 59.10,455.14 72.05,450.22 C78.61,447.60 114.52,431.11 129.00,424.50 C137.47,420.87 152.34,414.87 159.21,412.17 C167.83,408.87 174.11,407.08 182.96,405.30 C193.74,403.19 202.32,402.13 212.25,402.00 C224.25,402.03 230.26,401.83 236.17,402.74 C242.83,403.74 260.20,403.48 264.32,403.07 C269.11,402.57 283.38,399.04 287.45,397.72 C293.93,395.62 342.79,376.91 348.55,375.02 C360.41,371.35 380.03,365.09 401.78,360.12 C415.90,356.72 451.27,348.48 459.00,347.25 C464.91,346.32 481.11,344.61 488.52,343.82 C499.59,342.57 510.97,341.54 516.00,342.75 C516.97,343.00 520.05,344.04 521.24,344.52 C522.72,345.16 524.73,346.74 525.81,348.17 C526.84,349.60 527.61,352.34 527.59,354.36 C527.50,357.39 525.81,362.15 523.50,366.00 C522.26,368.04 508.12,389.12 505.90,392.11 C500.37,399.51 494.04,409.57 489.82,416.56 C487.62,420.25 485.43,424.91 485.25,426.75 C485.14,428.25 485.50,431.72 486.00,432.75 C486.55,433.81 489.02,435.38 490.50,435.75 C494.21,436.58 509.14,434.57 516.00,432.75 C525.32,430.25 605.19,404.77 636.50,394.69 C643.95,392.42 660.75,387.50 664.69,386.66 C669.97,385.54 685.00,385.47 690.00,386.25 C693.64,386.84 700.63,389.12 703.26,390.79 C705.92,392.52 709.86,396.32 711.73,398.90 C713.36,401.19 715.56,406.35 716.25,408.75 C717.43,413.00 718.08,419.85 717.75,423.75 C717.74,423.81 716.92,436.63 716.89,437.97 C716.86,440.43 717.48,442.83 718.50,444.00 C719.54,445.10 725.83,445.75 730.50,444.75 C735.46,443.63 751.26,436.13 755.48,433.81 C759.55,431.56 777.98,420.21 782.20,417.22 C788.94,412.44 799.04,403.74 806.89,396.09 C817.98,384.86 831.88,367.31 834.75,362.25 C837.15,357.92 838.40,352.70 837.75,349.50 C837.05,346.43 833.83,342.00 831.00,340.50 C828.22,339.10 810.11,336.56 804.54,336.42 C796.09,336.24 755.37,338.84 739.02,340.39 C710.02,343.88 649.15,351.95 616.14,355.99 C600.91,357.73 561.23,361.96 551.81,362.48 C535.70,363.26 508.16,361.61 501.14,361.55 C479.71,361.58 461.78,359.28 439.86,358.16 C430.68,357.62 423.40,356.36 414.80,355.90 C395.63,355.14 361.98,357.06 356.32,357.75 C342.05,359.75 323.46,361.28 300.02,364.34 C283.89,366.42 253.23,370.12 238.69,371.73 C227.76,372.73 217.77,373.17 211.00,372.40 C207.55,372.00 199.70,370.75 196.15,370.18 C190.63,369.28 187.40,368.27 184.24,365.33 C182.31,363.46 179.72,360.80 179.25,360.00 C178.55,358.74 178.58,357.05 179.25,355.50 C181.26,351.07 183.29,347.89 185.62,345.72 C188.33,343.23 205.15,330.03 211.00,326.44 C216.46,323.11 227.70,317.85 236.74,314.23 C250.69,309.00 278.95,299.26 293.85,295.35 C307.60,292.07 333.50,288.08 350.83,286.15 C376.45,283.72 438.16,282.37 442.50,282.37 C457.60,282.86 488.25,283.29 503.80,283.24 C521.07,283.42 547.97,285.10 568.34,287.02 C575.51,287.66 594.28,289.18 596.62,289.46 C601.53,290.04 618.68,293.44 623.91,294.13 C625.92,294.40 640.81,296.28 652.49,298.70 C656.64,299.53 663.92,300.14 666.75,300.75 C666.31,301.39 665.70,301.60 664.05,301.53 C656.61,301.24 618.03,304.63 601.88,306.22 C587.16,308.03 562.31,311.94 545.97,315.04 C530.14,318.18 497.01,324.84 479.70,328.36 C455.89,333.50 443.29,337.46 424.95,342.31 C408.99,346.28 375.76,354.70 367.00,357.31 C359.86,359.62 349.01,363.18 345.74,364.34 C343.79,364.99 343.16,365.56 342.75,366.75 C345.39,367.45 347.79,367.51 353.67,367.00 C361.71,366.12 378.47,364.12 383.07,363.27 C397.23,360.49 427.54,354.67 444.13,351.88 C473.95,347.52 534.99,338.57 566.22,333.99 C587.43,330.43 596.40,329.33 605.25,327.00 C604.91,327.03 600.32,326.18 597.21,326.14 C592.90,326.10 558.24,327.09 538.23,328.50 C521.16,329.96 483.24,333.00 472.74,333.41 C441.43,334.57 401.98,334.07 387.00,333.75 C377.35,333.30 366.62,331.62 359.58,330.29 C344.76,327.10 311.90,319.68 298.40,315.15 C295.19,314.03 288.40,311.66 285.40,310.06 C283.77,309.16 281.99,307.54 281.03,306.16 C280.05,304.65 279.42,302.65 279.42,300.90 C279.47,299.18 279.93,296.98 280.55,295.49 C281.73,292.87 285.95,288.53 290.18,284.87 C297.37,278.83 308.37,271.16 315.47,267.23 C321.19,264.19 334.16,257.84 340.69,255.19 C347.73,252.49 365.09,246.14 368.25,245.25 C373.41,243.81 379.88,243.12 381.00,243.00 C369.46,246.88 347.92,253.13 325.64,261.16 C294.59,272.61 225.80,297.71 204.91,306.27 C197.01,309.62 180.24,316.83 171.37,320.68 C164.31,323.76 153.62,328.42 150.00,330.00" fill="none" stroke="rgb(199, 188, 161)" stroke-width="100.00" stroke-opacity="1.00" stroke-linejoin="round"/>
</g>
<g stroke-linecap="round" id="Layer_6">
<path d="M66.00,396.00 C66.84,396.45 69.07,397.71 69.75,397.50 C72.83,396.54 73.56,392.64 75.00,389.25 C75.76,387.41 78.09,381.73 78.37,380.93 C78.74,379.82 78.87,379.09 78.75,378.75 C78.44,378.17 62.38,397.41 60.24,399.76 C56.21,404.14 48.51,410.60 40.83,418.42 C28.87,430.81 -1.04,462.16 -4.43,466.33 C-6.05,468.35 -9.82,474.00 -10.50,476.25 C-9.58,476.47 3.15,469.48 12.78,463.55 C24.51,456.05 47.31,437.37 61.07,427.86 C83.24,412.88 91.91,407.48 96.97,405.50 C98.41,404.94 99.54,405.06 101.25,405.75 C101.34,408.05 101.12,409.67 100.24,411.53 C98.48,415.22 77.18,452.06 70.52,462.97 C68.92,465.75 59.61,485.51 60.00,486.75 C60.13,487.15 60.63,488.15 61.50,489.75 C63.81,489.86 65.07,489.65 66.97,488.67 C74.65,484.85 82.16,480.53 90.29,473.84 C105.90,460.66 121.65,445.85 132.49,439.62 C134.45,438.52 136.62,437.68 138.61,437.25 C140.25,436.93 142.44,437.90 144.00,439.50 C144.52,440.07 145.44,442.77 145.50,443.25 C145.51,443.34 145.53,450.78 146.07,456.87 C146.52,461.36 147.65,471.89 147.75,472.50 C148.29,475.66 150.58,480.50 151.50,481.50 C152.93,482.98 157.49,484.44 160.50,484.50 C163.03,484.51 167.86,482.78 172.16,480.80 C179.80,477.15 191.13,470.58 197.36,466.32 C203.43,462.14 212.28,454.77 220.09,447.58 C227.73,440.84 234.73,435.36 243.43,429.45 C246.40,427.53 262.64,416.83 267.02,412.70 C271.64,408.32 299.94,375.75 304.50,371.25 C309.00,367.12 322.61,353.86 324.05,352.47 C330.54,346.30 343.11,338.47 349.79,334.98 C352.08,333.79 358.13,331.35 360.75,330.75 C363.86,330.06 370.38,329.99 372.00,330.75 C373.80,331.67 376.17,335.86 377.25,339.75 C377.92,342.33 377.62,346.75 376.57,350.92 C375.35,355.58 368.66,378.52 367.91,380.77 C364.53,390.72 345.60,426.34 345.75,427.50 C345.80,427.81 346.05,428.56 346.50,429.75 C349.35,430.41 351.32,430.60 353.50,430.30 C359.39,429.47 368.58,425.68 380.10,420.57 C383.65,419.01 391.61,415.53 394.30,414.52 C399.65,412.54 409.68,412.54 411.00,413.25 C412.77,414.29 413.76,416.90 413.25,419.25 C413.15,419.66 404.46,435.88 401.22,443.26 C397.49,451.95 395.87,459.95 396.00,460.50 C396.34,461.72 397.92,463.09 399.40,463.57 C402.57,464.46 409.30,464.45 412.52,463.63 C417.09,462.42 432.45,456.34 439.87,452.62 C446.08,449.41 460.22,441.70 467.30,437.77 C491.03,423.48 538.15,396.64 548.59,390.35 C552.73,387.79 564.41,379.70 572.09,375.68 C577.43,372.82 594.82,361.27 598.80,358.31 C604.63,353.96 614.71,344.28 620.32,340.88 C625.82,337.55 639.00,326.43 643.03,323.77 C647.31,321.01 652.80,317.76 655.50,316.50 C658.93,314.92 666.03,312.95 667.50,312.75 C670.21,312.41 674.93,313.10 676.50,314.25 C676.90,314.56 679.69,317.66 680.06,318.48 C681.29,321.34 680.66,329.47 679.78,333.87 C678.85,338.38 676.87,344.96 675.40,347.98 C670.54,357.46 660.40,383.99 659.66,387.42 C659.47,388.27 658.31,395.34 659.06,397.62 C659.99,400.20 662.86,402.41 665.67,403.53 C669.16,404.80 675.33,405.18 680.20,404.84 C685.48,404.44 703.03,402.42 710.51,401.54 C715.32,401.00 721.27,400.77 723.75,401.25 C725.31,401.59 728.85,402.85 729.75,403.50 C730.75,404.26 731.90,406.69 732.00,408.00 C732.06,409.95 724.94,428.00 721.99,435.43 C719.25,442.50 713.10,459.51 712.57,464.78 C712.23,468.53 712.93,474.53 714.22,476.62 C715.67,478.85 719.07,480.84 722.01,481.58 C724.90,482.28 730.82,482.74 735.00,482.25 C737.67,481.92 755.73,478.16 763.17,476.53 C770.89,474.75 787.03,469.15 791.09,467.97 C799.32,465.57 849.57,454.32 853.33,453.96 C858.86,453.46 870.43,454.39 882.75,455.75 C883.50,455.84 884.25,455.92 885.00,456.00" fill="none" stroke="rgb(199, 188, 161)" stroke-width="100.00" stroke-opacity="1.00" stroke-linejoin="round"/>
</g>
</svg>
